<svg xmlns="http://www.w3.org/2000/svg" height="24" width="24" viewBox="0 0 24 24" fill="#000000">
  <path d="M19.14,12.94c0.04-0.31,0.06-0.63,0.06-0.94s-0.02-0.63-0.06-0.94l2.03-1.58
    c0.18-0.14,0.23-0.4,0.12-0.61l-1.92-3.32c-0.11-0.21-0.37-0.3-0.59-0.22l-2.39,0.96
    c-0.5-0.38-1.04-0.7-1.64-0.94L14.5,2.5c-0.03-0.23-0.22-0.4-0.45-0.4h-4.1
    c-0.23,0-0.42,0.17-0.45,0.4L9.25,5.35c-0.6,0.24-1.14,0.56-1.64,0.94L5.22,5.33
    c-0.22-0.09-0.48,0.01-0.59,0.22L2.71,8.87c-0.11,0.21-0.06,0.47,0.12,0.61l2.03,1.58
    C4.82,11.37,4.8,11.69,4.8,12s0.02,0.63,0.06,0.94l-2.03,1.58c-0.18,0.14-0.23,0.4-0.12,0.61
    l1.92,3.32c0.11,0.21,0.37,0.3,0.59,0.22l2.39-0.96c0.5,0.38,1.04,0.7,1.64,0.94l0.25,2.85
    c0.03,0.23,0.22,0.4,0.45,0.4h4.1c0.23,0,0.42-0.17,0.45-0.4l0.25-2.85c0.6-0.24,1.14-0.56,1.64-0.94
    l2.39,0.96c0.22,0.09,0.48-0.01,0.59-0.22l1.92-3.32c0.11-0.21,0.06-0.47-0.12-0.61L19.14,12.94z
    M12,15.6c-1.99,0-3.6-1.61-3.6-3.6s1.61-3.6,3.6-3.6s3.6,1.61,3.6,3.6S13.99,15.6,12,15.6z"></path>
</svg>