<svg xmlns="http://www.w3.org/2000/svg" width="16" height="16" viewBox="0 0 16 16" fill="none">
  <path d="M11.5.75c.58-.58 1.53-.58 2.11 0l.64.64c.58.58.58 1.53 0 2.11L10.9 6.85 8.15 4.1 11.5.75Z" fill="#000"/>
  <path d="M7.5 4.75 11.25 8.5l-.95.95c-.28.28-.71.36-1.08.2l-.54-.23-1.9 4.58c-.22.53-.94.61-1.28.15l-1.05-1.4-1.4 1.4c-.46.46-1.25.1-1.2-.55l.18-2.3-1.28.51c-.6.24-1.14-.45-.78-.99l2.46-3.7c.27-.41.81-.55 1.25-.33l.53.27 3.29-2.31Z" fill="#000"/>
  <path d="M2.1 1.9 2.55.8 3 1.9l1.1.45L3 2.8l-.45 1.1L2.1 2.8 1 2.35l1.1-.45Zm2.8 1.85.35-.85.35.85.85.35-.85.35-.35.85-.35-.85-.85-.35.85-.35Z" fill="#000"/>
</svg>
